<svg width="25" height="25" viewBox="0 0 25 25" fill="none" xmlns="http://www.w3.org/2000/svg">
<path d="M15.8789 22.7143H22.7197V21.7714C22.2447 21.3333 21.7126 21 21.1235 20.7714C20.5344 20.5429 19.9264 20.4286 19.2993 20.4286C18.6722 20.4286 18.0641 20.5429 17.4751 20.7714C16.886 21 16.3539 21.3333 15.8789 21.7714V22.7143ZM19.2993 19.2857C19.7743 19.2857 20.1783 19.1192 20.5113 18.7863C20.8442 18.4533 21.0103 18.0484 21.0095 17.5714C21.0087 17.0945 20.8427 16.6899 20.5113 16.3577C20.1799 16.0255 19.7759 15.8587 19.2993 15.8571C18.8227 15.8556 18.4191 16.0225 18.0885 16.3577C17.7578 16.693 17.5914 17.0975 17.5891 17.5714C17.5868 18.0453 17.7533 18.4503 18.0885 18.7863C18.4237 19.1223 18.8273 19.2888 19.2993 19.2857ZM12.5154 8.42857C11.4133 8.42857 10.4727 8.81905 9.69359 9.6C8.91449 10.381 8.52494 11.3238 8.52494 12.4286C8.52494 13.3429 8.78147 14.1429 9.29454 14.8286C9.8076 15.5143 10.4822 15.9905 11.3183 16.2571C11.3183 15.819 11.3232 15.4 11.3331 15C11.343 14.6 11.4236 14.2381 11.5748 13.9143C11.3088 13.7619 11.1142 13.5524 10.9911 13.2857C10.8679 13.019 10.806 12.7333 10.8052 12.4286C10.8052 11.9524 10.9717 11.5478 11.3046 11.2149C11.6375 10.8819 12.0411 10.715 12.5154 10.7143C12.8005 10.7143 13.0714 10.7859 13.3284 10.9291C13.5853 11.0724 13.7989 11.2674 13.9691 11.5143C14.1781 11.419 14.3967 11.3524 14.6247 11.3143C14.8527 11.2762 15.0808 11.2571 15.3088 11.2571H16.3349C16.0879 10.4381 15.6178 9.7619 14.9246 9.22857C14.2314 8.69524 13.4283 8.42857 12.5154 8.42857ZM9.32304 23.8571L8.86698 20.2C8.61995 20.1048 8.38736 19.9905 8.16922 19.8571C7.95107 19.7238 7.7371 19.581 7.52732 19.4286L4.13539 20.8571L1 15.4286L3.93587 13.2C3.91686 13.0667 3.90736 12.9383 3.90736 12.8149V12.0434C3.90736 11.9192 3.91686 11.7905 3.93587 11.6571L1 9.42857L4.13539 4L7.52732 5.42857C7.73634 5.27619 7.95487 5.13333 8.1829 5C8.41093 4.86667 8.63895 4.75238 8.86698 4.65714L9.32304 1H15.5938L16.0499 4.65714C16.2969 4.75238 16.5299 4.86667 16.7488 5C16.9677 5.13333 17.1813 5.27619 17.3895 5.42857L20.7815 4L23.9169 9.42857L21.4941 11.2857H18.6152C18.5962 11.1905 18.5772 11.0907 18.5582 10.9863C18.5392 10.8819 18.5107 10.7817 18.4727 10.6857L20.924 8.82857L19.8123 6.88571L16.9905 8.08571C16.5724 7.64762 16.1114 7.28114 15.6075 6.98629C15.1036 6.69143 14.5574 6.46743 13.9691 6.31429L13.5986 3.28571H11.3468L10.9477 6.31429C10.3587 6.46667 9.81254 6.69067 9.30936 6.98629C8.80617 7.2819 8.34518 7.63886 7.92636 8.05714L5.10451 6.88571L3.99287 8.82857L6.44418 10.6571C6.34917 10.9429 6.28266 11.2286 6.24466 11.5143C6.20665 11.8 6.18765 12.1048 6.18765 12.4286C6.18765 12.7333 6.20665 13.0286 6.24466 13.3143C6.28266 13.6 6.34917 13.8857 6.44418 14.1714L3.99287 16.0286L5.10451 17.9714L7.92636 16.7714C8.38242 17.2476 8.89549 17.6476 9.46556 17.9714C10.0356 18.2952 10.6532 18.5048 11.3183 18.6V23.8571H9.32304ZM15.3088 25C14.8337 25 14.4301 24.8335 14.098 24.5006C13.7658 24.1676 13.5993 23.7627 13.5986 23.2857V15.2857C13.5986 14.8095 13.765 14.405 14.098 14.072C14.4309 13.739 14.8345 13.5722 15.3088 13.5714H23.2898C23.7648 13.5714 24.1688 13.7383 24.5018 14.072C24.8347 14.4057 25.0008 14.8103 25 15.2857V23.2857C25 23.7619 24.8339 24.1669 24.5018 24.5006C24.1696 24.8343 23.7656 25.0008 23.2898 25H15.3088Z" fill="#D9D9D9"/>
</svg>
