<svg width="24" height="24" viewBox="0 0 24 24" fill="none" xmlns="http://www.w3.org/2000/svg">
<g clip-path="url(#clip0_562_13382)">
<path d="M4.61487 0C4.61487 0 2.79733 2.00215 2.79733 3C2.79772 3.44515 2.96305 3.87437 3.26139 4.20476C3.55973 4.53515 3.96991 4.74327 4.41271 4.78892C4.20066 4.74475 4.01033 4.62882 3.87379 4.46068C3.73726 4.29253 3.66287 4.08245 3.66318 3.86585C3.66318 3.34615 4.61487 2.30769 4.61487 2.30769C4.61487 2.30769 5.56656 3.34523 5.56656 3.86585C5.56656 4.32092 5.24533 4.70123 4.81702 4.78892C5.25983 4.74327 5.67001 4.53515 5.96835 4.20476C6.26668 3.87437 6.43201 3.44515 6.43241 3C6.43241 2.00308 4.61487 0 4.61487 0ZM11.9995 0C11.9995 0 10.1819 2.00215 10.1819 3C10.1823 3.44515 10.3477 3.87437 10.646 4.20476C10.9443 4.53515 11.3545 4.74327 11.7973 4.78892C11.5853 4.74475 11.3949 4.62882 11.2584 4.46068C11.1219 4.29253 11.0475 4.08245 11.0478 3.86585C11.0478 3.34615 11.9995 2.30769 11.9995 2.30769C11.9995 2.30769 12.9512 3.34523 12.9512 3.86585C12.9512 4.32092 12.6299 4.70123 12.2016 4.78892C12.6444 4.74327 13.0546 4.53515 13.353 4.20476C13.6513 3.87437 13.8166 3.44515 13.817 3C13.817 2.00308 11.9995 0 11.9995 0ZM19.3841 0C19.3841 0 17.5666 2.00215 17.5666 3C17.567 3.44515 17.7323 3.87437 18.0306 4.20476C18.329 4.53515 18.7391 4.74327 19.1819 4.78892C18.9699 4.74475 18.7796 4.62882 18.643 4.46068C18.5065 4.29253 18.4321 4.08245 18.4324 3.86585C18.4324 3.34615 19.3841 2.30769 19.3841 2.30769C19.3841 2.30769 20.3358 3.34523 20.3358 3.86585C20.3358 4.32092 20.0146 4.70123 19.5863 4.78892C20.0291 4.74327 20.4392 4.53515 20.7376 4.20476C21.0359 3.87437 21.2012 3.44515 21.2016 3C21.2016 2.00308 19.3841 0 19.3841 0ZM2.79733 5.25046C2.72222 5.23704 2.64506 5.24048 2.57144 5.26052C2.49782 5.28056 2.42957 5.31671 2.37162 5.36635C2.31368 5.41599 2.26749 5.47789 2.23639 5.54756C2.20529 5.61724 2.19005 5.69295 2.19179 5.76923C2.19179 6.10154 2.79733 6.70246 2.79733 7.75939V12.8945H6.43333V7.67354C6.43333 7.02831 7.03887 6.79477 7.03887 6.46154C7.03887 6.12923 7.02502 5.76923 6.00041 5.76923C4.47641 5.76923 2.79825 5.24954 2.79825 5.24954L2.79733 5.25046ZM10.1819 5.25046C10.1068 5.23704 10.0297 5.24048 9.95606 5.26052C9.88243 5.28056 9.81419 5.31671 9.75624 5.36635C9.6983 5.41599 9.6521 5.47789 9.621 5.54756C9.5899 5.61724 9.57467 5.69295 9.57641 5.76923C9.57641 6.10154 10.1819 6.70246 10.1819 7.75939V12.8945H13.817V7.67354C13.817 7.02831 14.4226 6.79477 14.4226 6.46154C14.4226 6.12923 14.4087 5.76923 13.3841 5.76923C11.8601 5.76923 10.1819 5.24954 10.1819 5.24954V5.25046ZM17.5666 5.25046C17.4914 5.23704 17.4143 5.24048 17.3407 5.26052C17.267 5.28056 17.1988 5.31671 17.1409 5.36635C17.0829 5.41599 17.0367 5.47789 17.0056 5.54756C16.9745 5.61724 16.9593 5.69295 16.961 5.76923C16.961 6.10154 17.5666 6.70246 17.5666 7.75939V12.8945H21.2016V7.67354C21.2016 7.02831 21.8072 6.79477 21.8072 6.46154C21.8072 6.12923 21.7933 5.76923 20.7687 5.76923C19.2447 5.76923 17.5666 5.24954 17.5666 5.24954V5.25046ZM3.69179 13.8462C2.16317 13.8462 0.92256 15.0868 0.92256 16.6154V22.1538C0.893653 22.1525 0.864698 22.1525 0.83579 22.1538C0.71457 22.1595 0.595659 22.1891 0.485847 22.2407C0.376034 22.2924 0.27747 22.3651 0.195784 22.4549C0.0308092 22.6361 -0.0554082 22.8755 -0.0439019 23.1203C-0.0323956 23.3651 0.075892 23.5953 0.257139 23.7603C0.438385 23.9253 0.677744 24.0115 0.92256 24H23.0764C23.3212 24 23.556 23.9028 23.7291 23.7296C23.9022 23.5565 23.9995 23.3217 23.9995 23.0769C23.9995 22.8321 23.9022 22.5973 23.7291 22.4242C23.556 22.2511 23.3212 22.1538 23.0764 22.1538V16.6154C23.0764 15.0868 21.8358 13.8462 20.3072 13.8462H3.69179ZM4.61487 17.5385C4.61487 18.0281 4.80937 18.4977 5.15559 18.8439C5.50181 19.1901 5.97139 19.3846 6.46102 19.3846C6.95065 19.3846 7.42023 19.1901 7.76645 18.8439C8.11267 18.4977 8.30718 18.0281 8.30718 17.5385C8.30718 18.0281 8.50168 18.4977 8.8479 18.8439C9.19412 19.1901 9.6637 19.3846 10.1533 19.3846C10.643 19.3846 11.1125 19.1901 11.4588 18.8439C11.805 18.4977 11.9995 18.0281 11.9995 17.5385C11.9995 18.0281 12.194 18.4977 12.5402 18.8439C12.8864 19.1901 13.356 19.3846 13.8456 19.3846C14.3353 19.3846 14.8048 19.1901 15.1511 18.8439C15.4973 18.4977 15.6918 18.0281 15.6918 17.5385C15.6918 18.0281 15.8863 18.4977 16.2325 18.8439C16.5787 19.1901 17.0483 19.3846 17.5379 19.3846C18.0276 19.3846 18.4972 19.1901 18.8434 18.8439C19.1896 18.4977 19.3841 18.0281 19.3841 17.5385C19.3841 18.0281 19.5786 18.4977 19.9248 18.8439C20.271 19.1901 20.7406 19.3846 21.2303 19.3846V22.1538H2.76871V19.3846C3.25834 19.3846 3.72792 19.1901 4.07414 18.8439C4.42036 18.4977 4.61487 18.0281 4.61487 17.5385Z" fill="#7D21FE"/>
</g>
<defs>
<clipPath id="clip0_562_13382">
<rect width="24" height="24" fill="white"/>
</clipPath>
</defs>
</svg>
