<svg width="24" height="24" viewBox="0 0 24 24" fill="none" xmlns="http://www.w3.org/2000/svg">
<path d="M3.5 8.75006C3.5 8.55114 3.42098 8.36038 3.28033 8.21973C3.13968 8.07907 2.94891 8.00006 2.75 8.00006C2.55109 8.00006 2.36032 8.07907 2.21967 8.21973C2.07902 8.36038 2 8.55114 2 8.75006H3.5ZM22 12.7501C22 12.949 22.079 13.1397 22.2197 13.2804C22.3603 13.421 22.5511 13.5001 22.75 13.5001C22.9489 13.5001 23.1397 13.421 23.2803 13.2804C23.421 13.1397 23.5 12.949 23.5 12.7501H22ZM2.105 4.67706C2.08564 4.87504 2.14572 5.07261 2.27203 5.22629C2.39833 5.37998 2.58052 5.4772 2.7785 5.49656C2.97649 5.51592 3.17405 5.45584 3.32774 5.32953C3.48142 5.20322 3.57864 5.02104 3.598 4.82306L2.105 4.67706ZM23.395 16.8231C23.4046 16.725 23.3948 16.6261 23.3661 16.5318C23.3375 16.4376 23.2905 16.3499 23.228 16.2738C23.1654 16.1977 23.0885 16.1347 23.0016 16.0883C22.9147 16.0419 22.8195 16.0131 22.7215 16.0036C22.6235 15.994 22.5245 16.0038 22.4303 16.0324C22.336 16.0611 22.2484 16.108 22.1723 16.1706C22.0186 16.2969 21.9214 16.4791 21.902 16.6771L23.395 16.8231ZM14.75 20.0001H10.75V21.5001H14.75V20.0001ZM3.5 12.7501V8.75006H2V12.7501H3.5ZM22 12.3131V12.7501H23.5V12.3131H22ZM15.641 3.36106L19.6 6.92406L20.603 5.80806L16.645 2.24506L15.641 3.36106ZM23.5 12.3131C23.5 10.6241 23.515 9.55406 23.09 8.59806L21.719 9.20906C21.985 9.80706 22 10.4921 22 12.3131H23.5ZM19.6 6.92406C20.953 8.14206 21.453 8.61206 21.719 9.20906L23.09 8.59806C22.664 7.64106 21.859 6.93806 20.603 5.80806L19.6 6.92406ZM10.78 1.50006C12.362 1.50006 12.959 1.51206 13.49 1.71606L14.028 0.316056C13.176 -0.0119442 12.248 5.57855e-05 10.78 5.57855e-05V1.50006ZM16.645 2.24606C15.559 1.26906 14.88 0.642056 14.028 0.316056L13.491 1.71606C14.023 1.92006 14.471 2.30806 15.641 3.36106L16.645 2.24606ZM10.75 20.0001C8.843 20.0001 7.489 19.9981 6.46 19.8601C5.455 19.7251 4.875 19.4711 4.452 19.0481L3.392 20.1081C4.14 20.8581 5.089 21.1891 6.261 21.3471C7.411 21.5021 8.886 21.5001 10.75 21.5001V20.0001ZM2 12.7501C2 14.6141 1.998 16.0881 2.153 17.2391C2.311 18.4111 2.643 19.3601 3.391 20.1091L4.451 19.0491C4.029 18.6251 3.775 18.0451 3.64 17.0391C3.502 16.0121 3.5 14.6571 3.5 12.7501H2ZM14.75 21.5001C16.614 21.5001 18.088 21.5021 19.239 21.3471C20.411 21.1891 21.36 20.8571 22.109 20.1091L21.049 19.0491C20.625 19.4711 20.045 19.7251 19.039 19.8601C18.012 19.9981 16.657 20.0001 14.75 20.0001V21.5001ZM10.78 5.57855e-05C8.905 5.57855e-05 7.424 -0.00194421 6.269 0.153056C5.092 0.311056 4.14 0.643056 3.391 1.39106L4.451 2.45106C4.875 2.02906 5.456 1.77506 6.468 1.64006C7.501 1.50206 8.863 1.50006 10.78 1.50006V5.57855e-05ZM3.598 4.82306C3.719 3.58906 3.98 2.92306 4.452 2.45206L3.392 1.39206C2.556 2.22606 2.239 3.31106 2.105 4.67706L3.598 4.82306ZM21.902 16.6771C21.781 17.9111 21.519 18.5771 21.048 19.0481L22.108 20.1081C22.944 19.2741 23.261 18.1891 23.395 16.8231L21.902 16.6771Z" fill="#D9D9D9"/>
<path d="M13.75 1.25V3.75C13.75 6.107 13.75 7.286 14.482 8.018C15.214 8.75 16.393 8.75 18.75 8.75H22.75" stroke="#D9D9D9" stroke-width="1.5"/>
</svg>
