<svg width="20" height="15" viewBox="0 0 20 15" fill="none" xmlns="http://www.w3.org/2000/svg">
<mask id="mask0_562_13619" style="mask-type:luminance" maskUnits="userSpaceOnUse" x="0" y="0" width="20" height="15">
<path fill-rule="evenodd" clip-rule="evenodd" d="M0 0V15H20V0H0Z" fill="white"/>
</mask>
<g mask="url(#mask0_562_13619)">
<path fill-rule="evenodd" clip-rule="evenodd" d="M0 0V5H20V0H0Z" fill="#BF2714"/>
<path fill-rule="evenodd" clip-rule="evenodd" d="M0 10V15H20V10H0Z" fill="#272727"/>
<path d="M7.66211 6.39062L8.28711 6.41937L8.12961 9.83812L7.50586 9.80937L7.66211 6.39062ZM8.31461 6.60313L8.93836 6.63812L8.78211 9.41062L8.15773 9.375L8.31461 6.60313Z" fill="#C09302"/>
<path d="M8.9668 6.81062L9.58992 6.86187L9.43367 8.77187L8.81055 8.72062L8.9668 6.81062ZM12.3368 6.39062L11.7118 6.41937L11.8687 9.83812L12.4937 9.80937L12.3368 6.39062ZM11.6843 6.60313L11.0605 6.63812L11.2168 9.41062L11.8412 9.375L11.6843 6.60313Z" fill="#C09302"/>
<path d="M11.0318 6.80469L10.4087 6.85594L10.5649 8.76594L11.188 8.71469L11.0318 6.80469ZM9.98242 9.57656L9.37305 9.43656L9.63117 8.31156L10.2405 8.45094L9.98242 9.57656Z" fill="#C09302"/>
<path d="M10.4495 9.5775L11.0583 9.4375L10.8008 8.3125L10.1914 8.45187L10.4495 9.5775Z" fill="#C09302"/>
<path d="M10.2944 9.56844H9.66937V8.46344H10.2944V9.56844ZM9.14625 6.82031L9.77125 6.83594L9.73437 8.32344L9.10938 8.30844L9.14625 6.82031ZM10.2331 6.82031L10.8581 6.83594L10.8213 8.32344L10.1963 8.30844L10.2331 6.82031Z" fill="#C09302"/>
<path d="M8.33644 9.94969L8.49894 9.34594C9.16144 9.52406 9.67081 9.61281 10.0177 9.61281C10.3646 9.61281 10.8746 9.52406 11.5377 9.34594L11.7002 9.94969C10.9883 10.1409 10.4308 10.2372 10.0183 10.2372C9.60581 10.2372 9.04769 10.1409 8.33644 9.94969ZM7.67644 6.38719C7.63519 5.97469 7.87644 5.69469 8.28581 5.73031C8.42081 5.74219 8.57206 5.78156 8.77331 5.85031L8.88956 5.89094C9.16644 5.98906 9.24144 6.01469 9.25706 6.01781C9.19581 6.00406 9.37644 5.67719 9.41831 5.62219C9.42269 5.65719 9.40206 5.65219 9.35206 5.64219L8.78831 5.52969L9.18956 5.11719C9.26017 5.04626 9.34458 4.99059 9.43757 4.9536C9.53057 4.91662 9.63016 4.89912 9.73019 4.90219C9.75206 4.90219 9.77269 4.90094 9.84019 4.89719L9.94644 4.89156C10.3371 4.87906 10.6164 4.98906 10.6164 5.39031C10.6164 5.53406 10.6352 5.76469 10.6646 5.93969C10.6746 5.99844 10.6939 6.05344 10.6364 6.07781C10.6389 6.05719 10.7758 6.00281 10.9883 5.91406L11.0133 5.90344C11.6308 5.64594 11.7027 5.62219 11.9021 5.74281C12.0346 5.82406 12.1608 5.96781 12.3021 6.18469L11.7789 6.52656C11.6877 6.38719 11.6152 6.30281 11.5808 6.27906C11.6589 6.33406 11.3946 6.42156 11.2546 6.48031L11.2296 6.49094C10.7483 6.69156 10.6858 6.71594 10.5483 6.71594C10.1739 6.71594 10.0402 6.33281 10.0033 5.78469C9.88769 6.16406 9.54394 6.64344 9.25956 6.64344C9.13581 6.64344 9.19581 6.66281 8.68019 6.47969L8.57269 6.44219C8.46278 6.40064 8.34882 6.37068 8.23269 6.35281L8.25769 6.32781L7.67644 6.38719Z" fill="#C09302"/>
</g>
</svg>
