<svg width="24" height="24" viewBox="0 0 24 24" fill="none" xmlns="http://www.w3.org/2000/svg">
<path d="M12 0C15.315 0 18 2.38667 18 5.33333C18 8.28 15.315 10.6667 12 10.6667C8.685 10.6667 6 8.28 6 5.33333C6 2.38667 8.685 0 12 0ZM18 14.0533C18 15.4667 17.58 18.76 14.715 22.44L13.5 16L14.91 13.4933C13.98 13.4 13.005 13.3333 12 13.3333C10.995 13.3333 10.02 13.4 9.09 13.4933L10.5 16L9.285 22.44C6.42 18.76 6 15.4667 6 14.0533C2.415 14.9867 0 16.6667 0 18.6667V24H24V18.6667C24 16.6667 21.6 14.9867 18 14.0533Z" fill="#D9D9D9"/>
</svg>
