<svg width="24" height="24" viewBox="0 0 24 24" fill="none" xmlns="http://www.w3.org/2000/svg">
<path fill-rule="evenodd" clip-rule="evenodd" d="M6.03849 21.2059C5.92798 20.9916 5.79096 20.7907 5.63036 20.6074C5.31035 20.2996 4.93454 20.0495 4.52108 19.8693C4.77348 19.7875 5.00436 19.6547 5.19791 19.48C5.39147 19.3053 5.54313 19.0927 5.64251 18.8569C5.74189 18.6212 5.78665 18.3677 5.77371 18.1139C5.76078 17.8601 5.69046 17.6119 5.56757 17.3864C5.34187 16.8843 4.95502 16.4633 4.46258 16.1839C3.97014 15.9045 3.39746 15.781 2.82681 15.8313C2.44009 15.9054 2.07575 16.0613 1.76061 16.2875C1.44548 16.5136 1.18758 16.8043 1.00592 17.1381C0.809417 17.4871 0.726375 17.884 0.767377 18.2782C0.808378 18.6724 0.971566 19.0461 1.23615 19.3515C1.45277 19.571 1.72277 19.7396 2.02102 19.8403C1.56298 20.0278 1.14991 20.3024 0.80709 20.6473C0.646847 20.8306 0.510182 21.0316 0.400005 21.2458C0.289979 21.4683 0.209139 21.7028 0.159313 21.9441C0.0405789 22.4578 -0.012133 22.9834 0.0023397 23.5092C-0.00168313 23.6109 0.033271 23.7105 0.100674 23.7895C0.168077 23.8684 0.263318 23.9212 0.368611 23.9381C0.423648 23.9451 0.47959 23.9416 0.533181 23.9277C0.586773 23.9139 0.636942 23.89 0.680768 23.8576C0.724593 23.8251 0.7612 23.7846 0.788457 23.7385C0.815713 23.6924 0.833075 23.6416 0.839531 23.589C1.0586 23.0164 1.33068 22.4678 1.65579 21.9431L1.92788 21.4344C2.02206 21.2548 2.08485 21.0753 2.1895 20.9057C2.32415 20.6915 2.48112 20.4924 2.66042 20.3082C2.71033 20.275 2.75016 20.2299 2.77589 20.1773C2.80162 20.1248 2.81233 20.0667 2.80693 20.0089C3.04692 20.0588 3.29076 20.0854 3.53843 20.0887C3.53843 20.0887 3.59075 20.0887 3.62214 20.0388C3.64443 20.1306 3.70003 20.2118 3.77912 20.2683C3.95702 20.4525 4.11399 20.652 4.25004 20.8668C4.35469 21.0364 4.41748 21.2159 4.51166 21.3955L4.78375 21.9042C5.11095 22.4342 5.38269 22.9892 5.59896 23.569C5.60519 23.6223 5.62288 23.6737 5.65094 23.7201C5.67899 23.7666 5.7168 23.8069 5.76199 23.8388C5.80718 23.8706 5.85878 23.8932 5.91357 23.9052C5.96835 23.9171 6.02513 23.9181 6.08035 23.9082C6.1926 23.8933 6.29412 23.8367 6.36274 23.7508C6.43136 23.6648 6.46152 23.5564 6.44662 23.4493C6.45774 22.9228 6.40151 22.3969 6.27918 21.8832C6.22772 21.6488 6.14691 21.422 6.03849 21.2059ZM2.65937 19.16C2.43179 19.0712 2.23822 18.918 2.10474 18.7211C2.02352 18.5708 1.99016 18.4011 2.00875 18.2329C2.02734 18.0647 2.09708 17.9054 2.20938 17.7745C2.30333 17.6222 2.43039 17.4909 2.58202 17.3894C2.73365 17.2879 2.90632 17.2185 3.08844 17.1859C3.37608 17.1396 3.67175 17.1812 3.93306 17.3048C4.19437 17.4285 4.40791 17.6278 4.54305 17.8742C5.00351 18.6722 4.22911 19.7785 2.65937 19.16ZM14.6584 21.2059C14.5479 20.9916 14.4109 20.7907 14.2503 20.6074C13.9303 20.2996 13.5545 20.0495 13.141 19.8693C13.3978 19.7926 13.6339 19.6636 13.8331 19.4911C14.0322 19.3186 14.1895 19.1069 14.2941 18.8706C14.3987 18.6343 14.448 18.3791 14.4386 18.1228C14.4292 17.8665 14.3614 17.6152 14.2398 17.3864C14.0141 16.8842 13.6271 16.463 13.1344 16.1836C12.6418 15.9042 12.0688 15.7808 11.498 15.8313C11.1021 15.8986 10.7275 16.0514 10.4031 16.2779C10.0786 16.5044 9.81271 16.7986 9.62585 17.1381C9.435 17.4909 9.35894 17.8901 9.40741 18.2844C9.45588 18.6787 9.62668 19.0503 9.89794 19.3515C10.1149 19.5718 10.384 19.7394 10.6828 19.8403C10.2248 20.0278 9.8117 20.3024 9.46888 20.6473C9.30827 20.8306 9.17125 21.0315 9.06075 21.2458C8.95388 21.4556 8.8731 21.6765 8.82005 21.9042C8.70132 22.4179 8.64861 22.9435 8.66308 23.4693C8.64801 23.5775 8.67785 23.6871 8.74626 23.7747C8.81468 23.8622 8.91625 23.9209 9.02935 23.9381C9.08439 23.9451 9.14033 23.9416 9.19392 23.9277C9.24751 23.9139 9.29768 23.89 9.34151 23.8576C9.38533 23.8251 9.42194 23.7846 9.4492 23.7385C9.47645 23.6924 9.49382 23.6416 9.50027 23.589C9.70573 23.0192 9.96492 22.4683 10.2747 21.9431L10.5468 21.4344C10.6409 21.2548 10.7037 21.0753 10.8084 20.9057C10.9437 20.6915 11.1007 20.4924 11.2793 20.3082C11.3292 20.275 11.369 20.2299 11.3948 20.1773C11.4205 20.1248 11.4312 20.0667 11.4258 20.0089C11.6672 20.0588 11.9114 20.0854 12.1584 20.0887C12.1584 20.0887 12.2107 20.0887 12.2421 20.0388C12.2644 20.1306 12.32 20.2118 12.399 20.2683C12.5769 20.4525 12.7336 20.652 12.8689 20.8668C12.9736 21.0364 13.0364 21.2159 13.1305 21.3955L13.4026 21.9042C13.7298 22.4342 14.0019 22.9892 14.2189 23.569C14.2251 23.6223 14.2428 23.6737 14.2709 23.7201C14.2989 23.7666 14.3367 23.8069 14.3819 23.8388C14.4271 23.8706 14.4787 23.8932 14.5335 23.9052C14.5883 23.9171 14.6451 23.9181 14.7003 23.9082C14.8123 23.8931 14.9136 23.8364 14.982 23.7504C15.0504 23.6645 15.0804 23.5563 15.0655 23.4493C15.0766 22.9228 15.0204 22.3969 14.8981 21.8832C14.8466 21.6488 14.7658 21.421 14.6574 21.2049M11.2772 19.16C11.0496 19.0712 10.8561 18.918 10.7226 18.7211C10.6414 18.5708 10.608 18.4011 10.6266 18.2329C10.6452 18.0647 10.7149 17.9054 10.8272 17.7745C10.9212 17.6222 11.0482 17.4909 11.1999 17.3894C11.3515 17.2879 11.5242 17.2185 11.7063 17.1859C11.9939 17.1396 12.2896 17.1812 12.5509 17.3048C12.8122 17.4285 13.0257 17.6278 13.1609 17.8742C13.6213 18.6822 12.8469 19.7685 11.2772 19.16ZM23.2773 21.2059C23.1668 20.9916 23.0298 20.7907 22.8692 20.6074C22.5679 20.3053 22.2138 20.0556 21.8227 19.8693C22.0751 19.7875 22.306 19.6547 22.4995 19.48C22.6931 19.3053 22.8447 19.0927 22.9441 18.8569C23.0435 18.6212 23.0882 18.3677 23.0753 18.1139C23.0624 17.8601 22.9921 17.6119 22.8692 17.3864C22.6435 16.8843 22.2566 16.4633 21.7642 16.1839C21.2717 15.9045 20.6991 15.781 20.1284 15.8313C19.7342 15.8999 19.3615 16.0532 19.0387 16.2797C18.716 16.5061 18.4516 16.7996 18.2657 17.1381C18.0692 17.4871 17.9861 17.884 18.0271 18.2782C18.0681 18.6724 18.2313 19.0461 18.4959 19.3515C18.7154 19.569 18.9837 19.7361 19.2808 19.8403C18.8204 20.029 18.4041 20.3034 18.0564 20.6473C17.8961 20.8306 17.7595 21.0316 17.6493 21.2458C17.5424 21.4556 17.4616 21.6765 17.4086 21.9042C17.2793 22.4167 17.216 22.9422 17.2202 23.4693C17.2051 23.5775 17.235 23.6871 17.3034 23.7747C17.3718 23.8622 17.4734 23.9209 17.5865 23.9381C17.6415 23.9451 17.6975 23.9416 17.7511 23.9277C17.8047 23.9139 17.8548 23.89 17.8986 23.8576C17.9425 23.8251 17.9791 23.7846 18.0063 23.7385C18.0336 23.6924 18.051 23.6416 18.0574 23.589C18.283 23.0171 18.5632 22.4661 18.8946 21.9431L19.1667 21.4344C19.2609 21.2548 19.3237 21.0753 19.4283 20.9057C19.563 20.6915 19.7199 20.4924 19.8992 20.3082C19.9489 20.2749 19.9886 20.2297 20.0141 20.1772C20.0397 20.1246 20.0502 20.0666 20.0447 20.0089C20.2889 20.0595 20.5365 20.0861 20.7877 20.0887L20.861 20.0388C20.8794 20.1321 20.9359 20.2146 21.0179 20.2683C21.1958 20.4525 21.3528 20.652 21.4888 20.8668C21.5935 21.0364 21.6563 21.2159 21.7505 21.3955L22.0226 21.9042C22.3498 22.4342 22.6215 22.9892 22.8378 23.569C22.844 23.6223 22.8617 23.6737 22.8897 23.7201C22.9178 23.7666 22.9556 23.8069 23.0008 23.8388C23.046 23.8706 23.0976 23.8932 23.1524 23.9052C23.2072 23.9171 23.2639 23.9181 23.3192 23.9082C23.4314 23.8933 23.5329 23.8367 23.6015 23.7508C23.6702 23.6648 23.7003 23.5564 23.6854 23.4493C23.6914 22.9153 23.6281 22.3826 23.4971 21.8633C23.4507 21.6365 23.377 21.4166 23.2773 21.2059ZM19.9086 19.16C19.6811 19.0712 19.4875 18.918 19.354 18.7211C19.2728 18.5708 19.2394 18.4011 19.258 18.2329C19.2766 18.0647 19.3464 17.9054 19.4587 17.7745C19.5526 17.6222 19.6797 17.4909 19.8313 17.3894C19.9829 17.2879 20.1556 17.2185 20.3377 17.1859C20.6254 17.1396 20.921 17.1812 21.1823 17.3048C21.4436 17.4285 21.6572 17.6278 21.7923 17.8742C21.8696 17.9896 21.9178 18.1205 21.9333 18.2566C21.9487 18.3927 21.9309 18.5304 21.8812 18.6588C21.8316 18.7873 21.7514 18.9031 21.647 18.9971C21.5427 19.0911 21.4169 19.1609 21.2796 19.2009C20.9865 19.3106 21.2795 19.3505 20.7877 19.3505C20.4862 19.331 20.1897 19.266 19.9086 19.16ZM16.4354 6.71801C16.3134 6.45624 16.155 6.21131 15.9644 5.98982C15.5266 5.52397 14.9972 5.14442 14.4062 4.8726C14.7257 4.60712 14.9684 4.26803 15.1113 3.88769C15.2542 3.50735 15.2925 3.09845 15.2225 2.70001C15.1751 2.06828 14.9187 1.46717 14.4901 0.98319C14.0615 0.49921 13.4829 0.157317 12.8375 0.00671673C12.1955 -0.0315716 11.5544 0.0943434 10.9806 0.371436C10.4067 0.648528 9.92095 1.06673 9.57353 1.58279C9.37582 1.83852 9.23624 2.13074 9.16371 2.44079C9.09118 2.75085 9.08729 3.07191 9.15229 3.38347C9.21729 3.69504 9.34974 3.99026 9.5412 4.25027C9.73266 4.51028 9.9789 4.72937 10.2642 4.89355H10.3689C9.83683 5.24112 9.34871 5.64614 8.91424 6.10054C8.60657 6.42074 8.34913 6.78384 8.1503 7.17686C7.94479 7.53302 7.81756 7.92535 7.77635 8.32992C7.73515 8.73449 7.78085 9.14282 7.91066 9.53C7.94003 9.63172 8.01046 9.71821 8.10656 9.77055C8.20266 9.82289 8.31659 9.83683 8.42343 9.80931C8.53287 9.78123 8.62621 9.71302 8.68306 9.61958C8.73992 9.52613 8.75569 9.41504 8.72692 9.31055C8.71882 9.05402 8.78009 8.79983 8.90482 8.57239C9.04086 8.3117 9.19784 8.06232 9.37574 7.82425C9.54318 7.57487 9.73155 7.32549 9.89898 7.05616C10.3061 6.45865 10.6305 5.85017 10.9444 5.39131C10.9444 5.39131 10.9444 5.31151 11.0072 5.26163C11.3463 5.37136 11.6979 5.44817 12.0537 5.49106C12.1025 5.49892 12.1524 5.49754 12.2007 5.48701C12.2489 5.47647 12.2945 5.45699 12.3348 5.42966C12.3751 5.40234 12.4094 5.36771 12.4357 5.32775C12.462 5.2878 12.4798 5.2433 12.488 5.19679C12.4962 5.15029 12.4948 5.10269 12.4837 5.05672C12.4727 5.01075 12.4523 4.9673 12.4236 4.92886C12.3949 4.89042 12.3586 4.85774 12.3167 4.83268C12.2748 4.80763 12.2281 4.79068 12.1793 4.78282C11.9247 4.72859 11.6759 4.65178 11.4363 4.5534C11.215 4.46177 11.0101 4.33756 10.8293 4.18531C10.5959 4.01052 10.4293 3.76725 10.3556 3.49316C10.2818 3.21906 10.3048 2.92943 10.4212 2.66909C10.5798 2.34779 10.8254 2.07265 11.1328 1.87207C11.5434 1.52546 12.0804 1.34636 12.6282 1.37331C13.0075 1.44002 13.3539 1.62172 13.616 1.89134C13.8782 2.16096 14.0419 2.50408 14.0828 2.86959C14.2398 3.61772 14.0201 4.41474 13.0991 4.48457C13.0379 4.47537 12.9753 4.47892 12.9156 4.495C12.856 4.51107 12.8007 4.53927 12.7536 4.57767C12.7064 4.61606 12.6686 4.66374 12.6427 4.71741C12.6167 4.77108 12.6033 4.82947 12.6033 4.88856C12.6033 4.94765 12.6167 5.00605 12.6427 5.05972C12.6686 5.11339 12.7064 5.16106 12.7536 5.19945C12.8007 5.23785 12.856 5.26605 12.9156 5.28212C12.9753 5.2982 13.0379 5.30175 13.0991 5.29255C13.3172 5.28461 13.5326 5.24423 13.7375 5.17285C13.7402 5.22127 13.7537 5.26859 13.7771 5.31161C13.8006 5.35463 13.8335 5.39235 13.8735 5.42223C14.2576 5.81226 14.5778 6.25616 14.8259 6.73796L15.1388 7.31651C15.5333 7.98784 15.8158 8.71503 15.9759 9.47015C15.9986 9.56957 16.0584 9.65773 16.1442 9.71819C16.2301 9.77865 16.3361 9.80728 16.4424 9.79873C16.5487 9.79018 16.6482 9.74504 16.7222 9.67173C16.7962 9.59842 16.8397 9.50195 16.8445 9.40033C16.883 8.76894 16.8373 8.13545 16.7085 7.51502C16.6528 7.23931 16.5614 6.97125 16.4364 6.71701" fill="#D9D9D9"/>
<path fill-rule="evenodd" clip-rule="evenodd" d="M14.8985 12.1846L12.8055 13.4405L12.6486 13.5602C12.7218 13.1313 12.7951 12.6924 12.8369 12.2535C12.853 12.034 12.853 11.8146 12.8369 11.5951C12.853 11.3757 12.853 11.1565 12.8369 10.9378C12.7741 10.419 12.6486 9.94024 12.5962 9.41155C12.6052 9.35996 12.6025 9.30715 12.5884 9.25661C12.5743 9.20607 12.5491 9.15896 12.5145 9.11841C12.4799 9.07785 12.4366 9.04477 12.3875 9.02136C12.3385 8.99795 12.2848 8.98475 12.23 8.98262C12.1317 8.9771 12.0351 9.00845 11.9608 9.06997C11.8864 9.13149 11.8403 9.21829 11.8323 9.3118C11.6578 9.82268 11.5283 10.3465 11.4451 10.8779C11.4289 11.1037 11.4289 11.3304 11.4451 11.5562C11.4472 11.7797 11.4646 12.0024 11.4974 12.2245C11.4974 12.6036 11.6125 12.9727 11.6858 13.3517C11.5602 13.262 11.4242 13.1822 11.2881 13.1024C10.6916 12.7532 10.0857 12.454 9.47874 12.1048C9.40103 12.048 9.30279 12.0228 9.20565 12.035C9.1085 12.0472 9.0204 12.0956 8.96073 12.1697C8.90106 12.2438 8.8747 12.3374 8.88746 12.43C8.90021 12.5226 8.95104 12.6066 9.02875 12.6635L11.1217 14.6066C11.315 14.8081 11.5208 14.9976 11.7392 15.1752C11.8517 15.2628 11.9873 15.3194 12.1312 15.3387C12.2751 15.3581 12.4218 15.3395 12.5554 15.2849C12.7277 15.2051 12.8844 15.102 13.0253 14.9757C13.2555 14.7762 13.4544 14.5069 13.6323 14.3373L15.4102 12.8021C15.4557 12.7706 15.4941 12.7307 15.523 12.6848C15.552 12.6388 15.5709 12.5878 15.5787 12.5348C15.5865 12.4817 15.5831 12.4277 15.5685 12.3759C15.5539 12.3242 15.5286 12.2757 15.494 12.2335C15.421 12.1527 15.3178 12.1023 15.2063 12.093C15.0949 12.0837 14.9841 12.1162 14.8975 12.1837M6.63439 12.4729C6.20532 12.6824 5.78673 12.8919 5.38906 13.1213C5.09605 13.2703 4.81349 13.4365 4.54141 13.6201H4.47862C4.58676 13.1971 4.71931 12.7815 4.87628 12.3732C5.00186 12.1038 5.12744 11.8345 5.26348 11.5752C5.40023 11.3291 5.55022 11.09 5.71347 10.858C6.04372 10.2517 6.5036 9.71824 7.06345 9.29185C7.12568 9.25431 7.17539 9.20062 7.20674 9.13709C7.23809 9.07356 7.24978 9.00283 7.24044 8.93319C7.2311 8.86356 7.20112 8.7979 7.15402 8.74393C7.10691 8.68996 7.04463 8.64992 6.97449 8.6285C6.92649 8.61548 6.8762 8.61195 6.82671 8.61813C6.77722 8.6243 6.72958 8.64005 6.68671 8.66441C5.87091 8.96825 5.15035 9.46621 4.59373 10.1108C4.34932 10.3859 4.14514 10.6912 3.98677 11.0186C3.8284 11.3378 3.70631 11.6699 3.6205 12.0151C3.50774 12.4431 3.44112 12.8809 3.42166 13.3218L1.33078 11.7258C1.29578 11.6923 1.25419 11.6657 1.2084 11.6476C1.1626 11.6295 1.11351 11.6202 1.06392 11.6202C1.01434 11.6202 0.965244 11.6295 0.919451 11.6476C0.873658 11.6657 0.832069 11.6923 0.797069 11.7258C0.731619 11.7939 0.695312 11.8828 0.695312 11.9752C0.695312 12.0675 0.731619 12.1565 0.797069 12.2245L2.80633 14.5667L3.37039 15.0854C3.3076 15.1553 3.60061 15.2849 3.68433 15.3248C3.79961 15.3845 3.93013 15.4121 4.06107 15.4046C4.30262 15.3983 4.53779 15.3293 4.74129 15.2051C4.99733 15.0156 5.23418 14.8061 5.45185 14.5767C5.62976 14.3659 5.81812 14.1631 6.01696 13.9682L7.06345 13.1413C7.14513 13.0769 7.19896 12.9861 7.21457 12.8862C7.23019 12.7863 7.20647 12.6845 7.148 12.6002C7.08953 12.516 7.00044 12.4554 6.89789 12.4301C6.79533 12.4047 6.68656 12.4164 6.59253 12.463L6.63439 12.4729ZM23.8627 11.7058C23.8286 11.6727 23.7879 11.6463 23.743 11.6283C23.6981 11.6103 23.6498 11.6011 23.6011 11.6011C23.5524 11.6011 23.5041 11.6103 23.4592 11.6283C23.4143 11.6463 23.3736 11.6727 23.3395 11.7058L21.2465 13.3019C21.2219 12.8614 21.1553 12.4241 21.0477 11.9951C20.9596 11.6508 20.8333 11.3164 20.6709 10.9976C20.5112 10.6735 20.3113 10.3687 20.0755 10.0899C19.5126 9.45189 18.7939 8.95554 17.9825 8.64446C17.8955 8.60251 17.7949 8.59405 17.7016 8.62082C17.6082 8.64759 17.5292 8.70755 17.481 8.78829C17.4327 8.86903 17.4189 8.96437 17.4423 9.05457C17.4657 9.14478 17.5246 9.22295 17.6068 9.2729C18.174 9.69684 18.6408 10.2305 18.9777 10.839C19.1242 11.0874 19.2707 11.3368 19.4068 11.5961C19.5428 11.8555 19.6684 12.1248 19.794 12.3941C19.9196 12.6635 20.0546 13.2221 20.1801 13.64H20.1278C19.8453 13.4605 19.5732 13.2909 19.2802 13.1413C18.9871 12.9916 18.4534 12.7024 18.0244 12.4929C17.9655 12.4579 17.8987 12.437 17.8295 12.432C17.7604 12.4271 17.691 12.4381 17.6273 12.4643C17.5636 12.4905 17.5075 12.531 17.4639 12.5824C17.4202 12.6337 17.3903 12.6944 17.3766 12.7592C17.3609 12.838 17.3705 12.9194 17.4041 12.9929C17.4377 13.0664 17.4938 13.1285 17.565 13.1712L18.6115 13.9991C18.8312 14.1787 19.0405 14.3782 19.2498 14.5777C19.464 14.8098 19.7012 15.0193 19.9614 15.2061C20.1603 15.3288 20.3915 15.3986 20.6301 15.4056C20.7611 15.4137 20.8918 15.386 21.0069 15.3258C21.101 15.3258 21.3941 15.1562 21.3208 15.0864L21.8964 14.5677L23.8931 12.2236C23.9293 12.1888 23.9574 12.1471 23.9756 12.1013C23.9938 12.0554 24.0017 12.0065 23.9988 11.9575C23.9958 11.9086 23.9821 11.8608 23.9584 11.8173C23.9348 11.7737 23.9019 11.7354 23.8617 11.7048" fill="#D9D9D9"/>
</svg>
