<svg width="24" height="24" viewBox="0 0 24 24" fill="none" xmlns="http://www.w3.org/2000/svg">
<path d="M9 11.25C9 11.664 8.676 12 8.2575 12H5.2425C5.06782 11.9982 4.89926 11.9355 4.7659 11.8226C4.63253 11.7098 4.54274 11.554 4.512 11.382L4.5 11.25C4.5 10.836 4.824 10.5 5.2425 10.5H8.2575C8.622 10.5 8.925 10.7745 8.988 11.118L9 11.25ZM5.265 6C5.08723 6.00052 4.91483 5.93912 4.77742 5.82635C4.64001 5.71357 4.54616 5.55646 4.512 5.382L4.5 5.25C4.5 4.836 4.842 4.5 5.265 4.5H18.735C19.11 4.5 19.4235 4.7745 19.488 5.118L19.5 5.25C19.5 5.664 19.158 6 18.735 6H12.7395V17.688L15.8295 14.598C15.8987 14.5264 15.9814 14.4692 16.0729 14.4299C16.1644 14.3906 16.2629 14.3699 16.3624 14.3691C16.462 14.3682 16.5608 14.3872 16.653 14.4249C16.7451 14.4626 16.8289 14.5183 16.8993 14.5887C16.9697 14.6591 17.0254 14.7429 17.0631 14.835C17.1008 14.9272 17.1198 15.026 17.1189 15.1256C17.1181 15.2251 17.0974 15.3236 17.0581 15.4151C17.0188 15.5066 16.9616 15.5893 16.89 15.6585L13.71 18.84C13.4917 19.0589 13.2307 19.2305 12.9432 19.344C12.6557 19.4576 12.3479 19.5107 12.039 19.5H11.9895C11.9299 19.5001 11.8705 19.493 11.8125 19.479C11.3257 19.4121 10.8742 19.1877 10.527 18.84L7.344 15.66C7.20317 15.5192 7.12405 15.3282 7.12405 15.129C7.12405 14.9298 7.20317 14.7388 7.344 14.598C7.48483 14.4572 7.67584 14.3781 7.875 14.3781C8.07416 14.3781 8.26517 14.4572 8.406 14.598L11.2395 17.433V6H5.265ZM19.5 11.25C19.5 11.664 19.176 12 18.7575 12H15.7425C15.5678 11.9982 15.3993 11.9355 15.2659 11.8226C15.1325 11.7098 15.0427 11.554 15.012 11.382L15 11.25C15 10.836 15.324 10.5 15.7425 10.5H18.7575C19.122 10.5 19.425 10.7745 19.488 11.118L19.5 11.25Z" fill="#D9D9D9"/>
</svg>
