<svg width="24" height="24" viewBox="0 0 24 24" fill="none" xmlns="http://www.w3.org/2000/svg">
<path d="M21.3333 21.6V8.4H2.66667V21.6H21.3333ZM17.3333 0H20V2.4H21.3333C22.0406 2.4 22.7189 2.65286 23.219 3.10294C23.719 3.55303 24 4.16348 24 4.8V21.6C24 22.932 22.8133 24 21.3333 24H2.66667C1.95942 24 1.28115 23.7471 0.781048 23.2971C0.280951 22.847 0 22.2365 0 21.6V4.8C0 3.48 1.2 2.4 2.66667 2.4H4V0H6.66667V2.4H17.3333V0ZM5.33333 19.2V10.8H8V19.2H5.33333ZM16 10.8H18.6667V19.2H16V10.8Z" fill="#D9D9D9"/>
</svg>
