<svg width="24" height="24" viewBox="0 0 24 24" fill="none" xmlns="http://www.w3.org/2000/svg">
<path d="M13.5 17.25H12V15.75C11.9994 15.1534 11.7622 14.5815 11.3403 14.1597C10.9185 13.7378 10.3466 13.5006 9.75 13.5H6.75C6.15345 13.5006 5.5815 13.7378 5.15967 14.1597C4.73784 14.5815 4.5006 15.1534 4.5 15.75V17.25H3V15.75C3.00119 14.7558 3.39666 13.8027 4.09966 13.0997C4.80267 12.3967 5.7558 12.0012 6.75 12H9.75C10.7442 12.0012 11.6973 12.3967 12.4003 13.0997C13.1033 13.8027 13.4988 14.7558 13.5 15.75V17.25ZM8.25 4.5C8.69501 4.5 9.13002 4.63196 9.50003 4.87919C9.87004 5.12643 10.1584 5.47783 10.3287 5.88896C10.499 6.3001 10.5436 6.7525 10.4568 7.18895C10.37 7.62541 10.1557 8.02632 9.84099 8.34099C9.52632 8.65566 9.12541 8.86995 8.68895 8.95677C8.2525 9.04358 7.8001 8.99903 7.38896 8.82873C6.97783 8.65843 6.62643 8.37004 6.37919 8.00003C6.13196 7.63002 6 7.19501 6 6.75C6 6.15326 6.23705 5.58097 6.65901 5.15901C7.08097 4.73705 7.65326 4.5 8.25 4.5ZM8.25 3C7.50832 3 6.7833 3.21993 6.16661 3.63199C5.54993 4.04404 5.06928 4.62971 4.78545 5.31494C4.50162 6.00016 4.42736 6.75416 4.57206 7.48159C4.71675 8.20902 5.0739 8.8772 5.59835 9.40165C6.1228 9.9261 6.79098 10.2833 7.51841 10.4279C8.24584 10.5726 8.99984 10.4984 9.68506 10.2145C10.3703 9.93072 10.956 9.45007 11.368 8.83339C11.7801 8.2167 12 7.49168 12 6.75C12 5.75544 11.6049 4.80161 10.9017 4.09835C10.1984 3.39509 9.24456 3 8.25 3ZM1.5 19.5H22.5V21H1.5V19.5ZM16.5 3V4.5H19.9395L15 9.4395L16.0605 10.5L21 5.5605V9H22.5V3H16.5Z" fill="#D9D9D9"/>
</svg>
