<svg width="24" height="24" viewBox="0 0 24 24" fill="none" xmlns="http://www.w3.org/2000/svg">
<g clip-path="url(#clip0_562_13428)">
<path d="M20.25 19.5039C20.4531 19.5039 20.6289 19.5781 20.7773 19.7266C20.9258 19.875 21 20.0508 21 20.2539C21 20.457 20.9258 20.6328 20.7773 20.7812C20.6289 20.9297 20.4531 21.0039 20.25 21.0039H11.25C11.0469 21.0039 10.8711 20.9297 10.7227 20.7812C10.5742 20.6328 10.5 20.457 10.5 20.2539C10.5 20.0508 10.5742 19.875 10.7227 19.7266C10.8711 19.5781 11.0469 19.5039 11.25 19.5039H20.25ZM18.75 22.5039C18.9531 22.5039 19.1289 22.5781 19.2773 22.7266C19.4258 22.875 19.5 23.0508 19.5 23.2539C19.5 23.457 19.4258 23.6328 19.2773 23.7812C19.1289 23.9297 18.9531 24.0039 18.75 24.0039H12.75C12.5469 24.0039 12.3711 23.9297 12.2227 23.7812C12.0742 23.6328 12 23.457 12 23.2539C12 23.0508 12.0742 22.875 12.2227 22.7266C12.3711 22.5781 12.5469 22.5039 12.75 22.5039H18.75ZM21.5391 16.5039H24V18.0039H6.29297C6.21484 18.5039 6.16016 19.0039 6.12891 19.5039C6.09766 20.0039 6.07031 20.5 6.04688 20.9922C6.02344 21.4844 6.01172 21.9844 6.01172 22.4922C6.01172 23 6.00781 23.5039 6 24.0039H1.5V21.7422C1.5 21.1094 1.52344 20.4844 1.57031 19.8672C1.61719 19.25 1.68359 18.6289 1.76953 18.0039H0V16.5039H2.01562C2.40625 14.5898 2.99609 12.75 3.78516 10.9844C4.57422 9.21875 5.55078 7.55078 6.71484 5.98047C5.57422 5.94141 4.52734 5.70312 3.57422 5.26562C2.62109 4.82812 1.75 4.20312 0.960938 3.39062L0.433594 2.85156L0.984375 2.33594C1.79688 1.57812 2.6875 1.00391 3.65625 0.613281C4.625 0.222656 5.66797 0.0234375 6.78516 0.015625C8.00391 0.015625 9.12109 0.242187 10.1367 0.695312C11.1523 1.14844 12.0859 1.80469 12.9375 2.66406C13.5391 2.67969 14.1211 2.77344 14.6836 2.94531C15.2461 3.11719 15.7695 3.35156 16.2539 3.64844C16.7383 3.94531 17.1797 4.29688 17.5781 4.70312C17.9766 5.10938 18.3164 5.55859 18.5977 6.05078C18.8789 6.54297 19.1016 7.07031 19.2656 7.63281C19.4297 8.19531 19.5078 8.78125 19.5 9.39062V10.1406H18.75C17.7188 10.1406 16.7539 9.92188 15.8555 9.48438C14.957 9.04688 14.1797 8.42578 13.5234 7.62109C12.9297 8.69922 12.1836 9.58594 11.2852 10.2812C10.3867 10.9766 9.33594 11.4648 8.13281 11.7461C7.79688 12.5195 7.5 13.3008 7.24219 14.0898C6.98438 14.8789 6.76172 15.6836 6.57422 16.5039H9.96094C10.1328 15.8477 10.4023 15.2461 10.7695 14.6992C11.1367 14.1523 11.5742 13.6758 12.082 13.2695C12.5898 12.8633 13.1602 12.5547 13.793 12.3438C14.4258 12.1328 15.0781 12.0195 15.75 12.0039C16.4297 12.0039 17.082 12.1133 17.707 12.332C18.332 12.5508 18.8984 12.8633 19.4062 13.2695C19.9141 13.6758 20.3555 14.1484 20.7305 14.6875C21.1055 15.2266 21.375 15.832 21.5391 16.5039ZM14.5078 4.45703C14.4609 4.96484 14.3594 5.48047 14.2031 6.00391C14.6016 6.69141 15.125 7.26172 15.7734 7.71484C16.4219 8.16797 17.1445 8.45703 17.9414 8.58203C17.8633 8.10547 17.7266 7.65625 17.5312 7.23438C17.3359 6.8125 17.0898 6.41797 16.793 6.05078C16.4961 5.68359 16.1523 5.37109 15.7617 5.11328C15.3711 4.85547 14.9531 4.63672 14.5078 4.45703ZM13.0312 4.53906C12.2344 4.60156 11.4844 4.79688 10.7812 5.125C10.0781 5.45312 9.44922 5.88281 8.89453 6.41406C8.33984 6.94531 7.88281 7.55859 7.52344 8.25391C7.16406 8.94922 6.92578 9.6875 6.80859 10.4688C7.47266 10.4141 8.10156 10.2734 8.69531 10.0469C9.28906 9.82031 9.83203 9.51562 10.3242 9.13281C10.8164 8.75 11.2539 8.3125 11.6367 7.82031C12.0195 7.32812 12.3359 6.76562 12.5859 6.13281C12.6953 5.875 12.7852 5.61328 12.8555 5.34766C12.9258 5.08203 12.9844 4.8125 13.0312 4.53906ZM2.625 2.89844C3.25 3.41406 3.94141 3.80859 4.69922 4.08203C5.45703 4.35547 6.24219 4.49219 7.05469 4.49219C7.8125 4.49219 8.54297 4.375 9.24609 4.14062C9.94922 3.90625 10.6055 3.5625 11.2148 3.10938C10.5898 2.59375 9.89844 2.19922 9.14062 1.92578C8.38281 1.65234 7.59766 1.51562 6.78516 1.51562C6.02734 1.51562 5.29688 1.63281 4.59375 1.86719C3.89062 2.10156 3.23438 2.44531 2.625 2.89844ZM6.35156 11.9805C6.28906 11.9961 6.22656 12.0039 6.16406 12.0039C6.10156 12.0039 6.03906 12.0039 5.97656 12.0039H5.60156C5.47656 12.0039 5.35156 11.9961 5.22656 11.9805V11.4297C4.8125 12.3516 4.46484 13.2578 4.18359 14.1484C3.90234 15.0391 3.67188 15.9375 3.49219 16.8438C3.3125 17.75 3.1875 18.668 3.11719 19.5977C3.04688 20.5273 3.00781 21.4961 3 22.5039H4.5C4.5 21.5586 4.53125 20.6445 4.59375 19.7617C4.65625 18.8789 4.76172 18.0078 4.91016 17.1484C5.05859 16.2891 5.25 15.4336 5.48438 14.582C5.71875 13.7305 6.00781 12.8633 6.35156 11.9805ZM11.5312 16.5039H19.9688C19.8125 16.0586 19.5938 15.6523 19.3125 15.2852C19.0312 14.918 18.707 14.6016 18.3398 14.3359C17.9727 14.0703 17.5664 13.8672 17.1211 13.7266C16.6758 13.5859 16.2188 13.5117 15.75 13.5039C15.2734 13.5039 14.8164 13.5742 14.3789 13.7148C13.9414 13.8555 13.5391 14.0586 13.1719 14.3242C12.8047 14.5898 12.4766 14.9062 12.1875 15.2734C11.8984 15.6406 11.6797 16.0508 11.5312 16.5039Z" fill="#7D21FE"/>
</g>
<defs>
<clipPath id="clip0_562_13428">
<rect width="24" height="24" fill="white"/>
</clipPath>
</defs>
</svg>
