<svg width="24" height="26" viewBox="0 0 24 26" fill="none" xmlns="http://www.w3.org/2000/svg">
<path d="M1.47949 4.22656H17.1523C17.2666 4.22656 17.385 4.27507 17.4785 4.37598C17.5732 4.47824 17.6318 4.62521 17.6318 4.78516V23.8271L17.6221 23.9434C17.6152 23.981 17.6043 24.0176 17.5908 24.0527C17.5638 24.1233 17.525 24.1851 17.4785 24.2354C17.4321 24.2855 17.3797 24.3238 17.3242 24.3486C17.2688 24.3734 17.2107 24.3848 17.1533 24.3848H1.47949C1.36533 24.3846 1.24766 24.3361 1.1543 24.2354C1.05964 24.1331 1.00005 23.987 1 23.8271V4.78516C1 4.62521 1.0596 4.47825 1.1543 4.37598C1.24763 4.27536 1.36543 4.22669 1.47949 4.22656Z" fill="white" stroke="#D9D9D9"/>
<path d="M17.6328 18.8877L16.6914 19.3633L14.127 19.166L15.6689 16.8691L17.6328 15.8799V18.8877ZM14.1943 4.22656V6.90039C14.1943 7.06024 14.1346 7.20633 14.04 7.30859C13.9465 7.40958 13.8282 7.45898 13.7139 7.45898H4.89746C4.78327 7.45886 4.66565 7.40945 4.57227 7.30859C4.47759 7.20632 4.41797 7.06033 4.41797 6.90039V4.22656H14.1943Z" fill="white" stroke="#D9D9D9"/>
<path d="M18.1323 20.1247V23.827C18.1325 23.9659 18.1072 24.1035 18.0581 24.2319C18.009 24.3602 17.9369 24.4769 17.846 24.5752C17.7551 24.6735 17.6471 24.7515 17.5283 24.8047C17.4095 24.8579 17.2821 24.8852 17.1535 24.8852H1.47993C1.22004 24.8852 0.970787 24.7737 0.787015 24.5753C0.603242 24.3768 0.5 24.1076 0.5 23.827V4.78484C0.5 4.50417 0.603242 4.23499 0.787015 4.03653C0.970787 3.83806 1.22004 3.72656 1.47993 3.72656H4.41865M14.2137 3.72656H17.1524C17.4123 3.72656 17.6615 3.83806 17.8453 4.03653C18.0291 4.23499 18.1323 4.50417 18.1323 4.78484V8.48709" stroke="#D9D9D9" stroke-linecap="round" stroke-linejoin="round"/>
<mask id="path-4-inside-1_562_25078" fill="white">
<path d="M10.7026 2.58203H13.2352C13.4948 2.58203 13.7438 2.69341 13.9274 2.89167C14.1109 3.08993 14.2141 3.35883 14.2141 3.63921V4.69754C14.2142 4.83657 14.1889 4.97426 14.1397 5.10273C14.0906 5.2312 14.0184 5.34793 13.9274 5.44623C13.8363 5.54454 13.7282 5.62249 13.6093 5.67562C13.4903 5.72876 13.3629 5.75603 13.2341 5.75587H5.3979C5.138 5.75587 4.88876 5.64437 4.70498 5.4459C4.52121 5.24742 4.41797 4.97823 4.41797 4.69754V3.63921C4.41825 3.35872 4.52162 3.08983 4.70536 2.8916C4.8891 2.69338 5.13819 2.58203 5.3979 2.58203H7.93481"/>
</mask>
<path d="M10.7026 2.58203H13.2352C13.4948 2.58203 13.7438 2.69341 13.9274 2.89167C14.1109 3.08993 14.2141 3.35883 14.2141 3.63921V4.69754C14.2142 4.83657 14.1889 4.97426 14.1397 5.10273C14.0906 5.2312 14.0184 5.34793 13.9274 5.44623C13.8363 5.54454 13.7282 5.62249 13.6093 5.67562C13.4903 5.72876 13.3629 5.75603 13.2341 5.75587H5.3979C5.138 5.75587 4.88876 5.64437 4.70498 5.4459C4.52121 5.24742 4.41797 4.97823 4.41797 4.69754V3.63921C4.41825 3.35872 4.52162 3.08983 4.70536 2.8916C4.8891 2.69338 5.13819 2.58203 5.3979 2.58203H7.93481" fill="white"/>
<path d="M13.2352 2.58203V1.58203V2.58203ZM14.2141 3.63921H15.2141H14.2141ZM14.2141 4.69754H13.2141L13.2141 4.69855L14.2141 4.69754ZM13.2341 5.75587L13.2353 4.75587H13.2341V5.75587ZM5.3979 5.75587V6.75587V5.75587ZM4.41797 3.63921L3.41797 3.6382V3.63921H4.41797ZM5.3979 2.58203L5.3979 3.58203H5.3979V2.58203ZM10.7026 2.58203V3.58203H13.2352V2.58203V1.58203H10.7026V2.58203ZM13.2352 2.58203V3.58203C13.2211 3.58203 13.2094 3.57888 13.2014 3.57533C13.1936 3.57184 13.1917 3.56901 13.1936 3.57108L13.9274 2.89167L14.6611 2.21227C14.297 1.81902 13.7859 1.58203 13.2352 1.58203V2.58203ZM13.9274 2.89167L13.1936 3.57108C13.199 3.57694 13.2141 3.60027 13.2141 3.63921H14.2141H15.2141C15.2141 3.11739 15.0228 2.60292 14.6611 2.21227L13.9274 2.89167ZM14.2141 3.63921H13.2141V4.69754H14.2141H15.2141V3.63921H14.2141ZM14.2141 4.69754L13.2141 4.69855C13.2141 4.71632 13.2108 4.73236 13.2059 4.74512L14.1397 5.10273L15.0736 5.46034C15.1671 5.21616 15.2143 4.95681 15.2141 4.69653L14.2141 4.69754ZM14.1397 5.10273L13.2059 4.74512C13.201 4.75781 13.1957 4.76458 13.1936 4.76683L13.9274 5.44623L14.6611 6.12564C14.8411 5.93128 14.9801 5.70459 15.0736 5.46034L14.1397 5.10273ZM13.9274 5.44623L13.1936 4.76683C13.1917 4.76892 13.1936 4.76609 13.2015 4.76257L13.6093 5.67562L14.0171 6.58868C14.2629 6.4789 14.481 6.32016 14.6611 6.12564L13.9274 5.44623ZM13.6093 5.67562L13.2015 4.76257C13.2096 4.75893 13.2213 4.75586 13.2353 4.75588L13.2341 5.75587L13.2329 6.75587C13.5044 6.75619 13.7711 6.69858 14.0171 6.58868L13.6093 5.67562ZM13.2341 5.75587V4.75587H5.3979V5.75587V6.75587H13.2341V5.75587ZM5.3979 5.75587V4.75587C5.4118 4.75587 5.42343 4.75899 5.43125 4.76249C5.43891 4.76592 5.44076 4.76867 5.43875 4.76649L4.70498 5.4459L3.97122 6.1253C4.33554 6.51877 4.84687 6.75587 5.3979 6.75587V5.75587ZM4.70498 5.4459L5.43875 4.76649C5.43312 4.76041 5.41797 4.73679 5.41797 4.69754H4.41797H3.41797C3.41797 5.21967 3.6093 5.73443 3.97122 6.1253L4.70498 5.4459ZM4.41797 4.69754H5.41797V3.63921H4.41797H3.41797V4.69754H4.41797ZM4.41797 3.63921L5.41797 3.64022C5.41801 3.60101 5.43315 3.57745 5.43876 3.57141L4.70536 2.8916L3.97197 2.2118C3.61009 2.60221 3.4185 3.11644 3.41797 3.6382L4.41797 3.63921ZM4.70536 2.8916L5.43876 3.57141C5.44076 3.56924 5.4389 3.572 5.43123 3.57542C5.42341 3.57892 5.41179 3.58203 5.3979 3.58203L5.3979 2.58203L5.3979 1.58203C4.84726 1.58203 4.33625 1.8188 3.97197 2.2118L4.70536 2.8916ZM5.3979 2.58203V3.58203H7.93481V2.58203V1.58203H5.3979V2.58203Z" fill="#D9D9D9" mask="url(#path-4-inside-1_562_25078)"/>
<path d="M10.7026 2.58203H13.2352C13.4948 2.58203 13.7438 2.69341 13.9274 2.89167C14.1109 3.08993 14.2141 3.35883 14.2141 3.63921V4.69754C14.2142 4.83657 14.1889 4.97426 14.1397 5.10273C14.0906 5.2312 14.0184 5.34793 13.9274 5.44623C13.8363 5.54454 13.7282 5.62249 13.6093 5.67562C13.4903 5.72876 13.3629 5.75603 13.2341 5.75587H5.3979C5.138 5.75587 4.88876 5.64437 4.70498 5.4459C4.52121 5.24742 4.41797 4.97823 4.41797 4.69754V3.63921C4.41825 3.35872 4.52162 3.08983 4.70536 2.8916C4.8891 2.69338 5.13819 2.58203 5.3979 2.58203H7.93481" stroke="#D9D9D9" stroke-linecap="round" stroke-linejoin="round"/>
<path d="M9.31506 3.67384C9.70476 3.67384 10.0785 3.50665 10.3541 3.20905C10.6296 2.91144 10.7844 2.5078 10.7844 2.08692C10.7844 1.66604 10.6296 1.2624 10.3541 0.964799C10.0785 0.667193 9.70476 0.5 9.31506 0.5C8.92536 0.5 8.55163 0.667193 8.27607 0.964799C8.00051 1.2624 7.8457 1.66604 7.8457 2.08692C7.8457 2.5078 8.00051 2.91144 8.27607 3.20905C8.55163 3.50665 8.92536 3.67384 9.31506 3.67384Z" fill="white" stroke="#D9D9D9" stroke-linecap="round" stroke-linejoin="round"/>
<path d="M3.4375 10.1523H15.1924M3.4375 14.3845H12.71M3.4375 18.6167H11.2577" stroke="#D9D9D9" stroke-linecap="round" stroke-linejoin="round"/>
<path d="M16.6636 18.5262L13.2344 19.5834L14.2143 15.881L20.0736 9.55175C20.3984 9.20097 20.8389 9.00391 21.2982 9.00391C21.7576 9.00391 22.1981 9.20097 22.5229 9.55175C22.8477 9.90254 23.0301 10.3783 23.0301 10.8744C23.0301 11.3705 22.8477 11.8462 22.5229 12.197L16.6636 18.5262Z" fill="#D9D9D9" stroke="#D9D9D9" stroke-linecap="round" stroke-linejoin="round"/>
</svg>
