<svg width="24" height="24" viewBox="0 0 24 24" fill="none" xmlns="http://www.w3.org/2000/svg">
<path d="M12.2795 10.8732C11.5297 10.8653 10.799 10.6358 10.1794 10.2135C9.55975 9.79114 9.07893 9.19494 8.79744 8.49992C8.51595 7.80491 8.44638 7.04214 8.59749 6.30767C8.7486 5.5732 9.11363 4.89985 9.64663 4.3724C10.1796 3.84496 10.8568 3.48699 11.5928 3.34358C12.3288 3.20017 13.0908 3.27772 13.7828 3.56648C14.4748 3.85523 15.066 4.34227 15.4818 4.96628C15.8976 5.59029 16.1195 6.32337 16.1195 7.07323C16.1125 8.08581 15.7044 9.05432 14.9846 9.76658C14.2649 10.4788 13.2921 10.8768 12.2795 10.8732ZM12.2795 4.60656C11.7935 4.61445 11.3205 4.76579 10.9202 5.04157C10.5199 5.31736 10.2099 5.7053 10.0293 6.15666C9.84877 6.60802 9.80559 7.10268 9.90524 7.5785C10.0049 8.05432 10.2429 8.49009 10.5894 8.83107C10.9359 9.17205 11.3755 9.40304 11.8528 9.49502C12.3302 9.587 12.8241 9.53587 13.2725 9.34805C13.7209 9.16024 14.1038 8.84412 14.3731 8.43939C14.6424 8.03466 14.7861 7.55937 14.7862 7.07323C14.7792 6.41427 14.5115 5.7849 14.0418 5.32268C13.5721 4.86047 12.9385 4.603 12.2795 4.60656Z" fill="#7D21FE"/>
<path d="M12.2792 10.8732C11.5294 10.8653 10.7987 10.6358 10.1791 10.2135C9.55944 9.79114 9.07861 9.19494 8.79712 8.49992C8.51563 7.8049 8.44607 7.04214 8.59718 6.30767C8.74829 5.5732 9.11332 4.89985 9.64632 4.3724C10.1793 3.84496 10.8564 3.48699 11.5925 3.34358C12.3285 3.20017 13.0905 3.27772 13.7825 3.56648C14.4745 3.85523 15.0657 4.34227 15.4815 4.96628C15.8973 5.59029 16.1192 6.32337 16.1192 7.07323C16.1122 8.08581 15.7041 9.05431 14.9843 9.76657C14.2645 10.4788 13.2918 10.8768 12.2792 10.8732ZM12.2792 4.60656C11.7931 4.61444 11.3202 4.76579 10.9199 5.04157C10.5195 5.31736 10.2096 5.7053 10.029 6.15666C9.84845 6.60802 9.80528 7.10268 9.90492 7.5785C10.0046 8.05432 10.2426 8.49009 10.5891 8.83107C10.9356 9.17205 11.3752 9.40304 11.8525 9.49502C12.3299 9.587 12.8238 9.53587 13.2722 9.34805C13.7206 9.16024 14.1035 8.84411 14.3728 8.43938C14.6421 8.03466 14.7858 7.55937 14.7859 7.07323C14.7788 6.41427 14.5112 5.7849 14.0415 5.32268C13.5718 4.86047 12.9382 4.603 12.2792 4.60656ZM14.6059 11.7666C11.6489 11.252 8.60479 11.7203 5.93922 13.0999C5.75 13.205 5.59332 13.36 5.48632 13.5482C5.37932 13.7363 5.32613 13.9502 5.33255 14.1666V16.5399C5.33255 16.7167 5.40279 16.8863 5.52781 17.0113C5.65284 17.1363 5.82241 17.2066 5.99922 17.2066C6.17603 17.2066 6.3456 17.1363 6.47062 17.0113C6.59565 16.8863 6.66588 16.7167 6.66588 16.5399V14.2532C9.13766 13.013 11.9485 12.6195 14.6659 13.1332L14.6059 11.7666Z" fill="#7D21FE"/>
<path d="M21.9993 14.669H17.5327V13.6823C17.5327 13.5055 17.4624 13.3359 17.3374 13.2109C17.2124 13.0859 17.0428 13.0156 16.866 13.0156C16.6892 13.0156 16.5196 13.0859 16.3946 13.2109C16.2696 13.3359 16.1993 13.5055 16.1993 13.6823V14.669H11.3327C11.1559 14.669 10.9863 14.7392 10.8613 14.8642C10.7363 14.9892 10.666 15.1588 10.666 15.3356V22.0023C10.666 22.1791 10.7363 22.3487 10.8613 22.4737C10.9863 22.5987 11.1559 22.669 11.3327 22.669H21.9993C22.1762 22.669 22.3457 22.5987 22.4708 22.4737C22.5958 22.3487 22.666 22.1791 22.666 22.0023V15.3356C22.666 15.1588 22.5958 14.9892 22.4708 14.8642C22.3457 14.7392 22.1762 14.669 21.9993 14.669ZM21.3327 21.3356H11.9993V16.0023H16.1993V16.2756C16.1993 16.4524 16.2696 16.622 16.3946 16.747C16.5196 16.8721 16.6892 16.9423 16.866 16.9423C17.0428 16.9423 17.2124 16.8721 17.3374 16.747C17.4624 16.622 17.5327 16.4524 17.5327 16.2756V16.0023H21.3327V21.3356Z" fill="#7D21FE"/>
<path d="M14.5407 18.2788H18.514V19.2121H14.5407V18.2788ZM7.22732 8.15878C5.38161 8.18966 3.56792 8.64593 1.92732 9.49211C1.74889 9.58636 1.59944 9.72732 1.49493 9.89994C1.39042 10.0726 1.33479 10.2703 1.33398 10.4721V12.5388C1.33398 12.7156 1.40422 12.8852 1.52925 13.0102C1.65427 13.1352 1.82384 13.2054 2.00065 13.2054C2.17746 13.2054 2.34703 13.1352 2.47206 13.0102C2.59708 12.8852 2.66732 12.7156 2.66732 12.5388V10.6054C4.23485 9.82519 5.97036 9.44283 7.72065 9.49211C7.49183 9.07421 7.32561 8.62498 7.22732 8.15878ZM22.074 9.48545C20.6026 8.71358 18.9854 8.25934 17.3273 8.15211C17.2293 8.61744 17.0655 9.0664 16.8407 9.48545C18.4027 9.52305 19.9371 9.90551 21.334 10.6054V12.5388C21.334 12.7156 21.4042 12.8852 21.5292 13.0102C21.6543 13.1352 21.8238 13.2054 22.0007 13.2054C22.1775 13.2054 22.347 13.1352 22.4721 13.0102C22.5971 12.8852 22.6673 12.7156 22.6673 12.5388V10.4721C22.6677 10.2692 22.6127 10.07 22.5081 9.89613C22.4035 9.72223 22.2534 9.58022 22.074 9.48545ZM7.10732 7.07211V6.62544C6.58506 6.55555 6.10988 6.28693 5.7807 5.87551C5.45151 5.46408 5.29369 4.94155 5.34008 4.41668C5.38646 3.89182 5.63349 3.40506 6.02973 3.05775C6.42597 2.71043 6.9409 2.52932 7.46732 2.55211C8.01486 2.55112 8.54114 2.76402 8.93399 3.14544C9.28074 2.85979 9.66139 2.61796 10.0673 2.42544C9.61373 1.90388 9.01274 1.532 8.34357 1.35882C7.67441 1.18564 6.96847 1.21929 6.31881 1.45534C5.66915 1.69138 5.10626 2.11874 4.70434 2.68108C4.30241 3.24342 4.08031 3.91435 4.06732 4.60544C4.08131 5.45128 4.41012 6.26152 4.98952 6.87791C5.56892 7.49429 6.3573 7.87254 7.20065 7.93878C7.14403 7.65321 7.1128 7.36319 7.10732 7.07211ZM16.514 1.21878C16.0558 1.21888 15.6023 1.31031 15.1799 1.48774C14.7575 1.66517 14.3748 1.92502 14.054 2.25211C14.5042 2.41641 14.9303 2.64065 15.3207 2.91878C15.6319 2.70273 15.9959 2.5752 16.3739 2.54978C16.7519 2.52437 17.1298 2.60202 17.4671 2.77446C17.8045 2.9469 18.0887 3.20766 18.2895 3.52894C18.4903 3.85022 18.6001 4.21998 18.6073 4.59878C18.6031 4.98787 18.4888 5.36782 18.2776 5.69463C18.0664 6.02144 17.767 6.28176 17.414 6.44544C17.4411 6.65099 17.4544 6.85812 17.454 7.06544C17.4519 7.33341 17.4296 7.60083 17.3873 7.86545C18.1136 7.67873 18.7577 7.25716 19.2195 6.66635C19.6813 6.07554 19.9349 5.34863 19.9407 4.59878C19.9319 3.69698 19.5665 2.83531 18.9245 2.202C18.2824 1.56869 17.4158 1.21521 16.514 1.21878Z" fill="#7D21FE"/>
</svg>
