<svg width="24" height="24" viewBox="0 0 24 24" fill="none" xmlns="http://www.w3.org/2000/svg">
<path d="M6.45558 0.859375L0.837891 6.47687L2.22455 7.86353C3.30455 5.34644 5.32486 3.32594 7.84204 2.24594L6.45548 0.859375H6.45558ZM17.6252 0.86125L16.2398 2.24659C18.7566 3.32697 20.7768 5.34761 21.8564 7.86489L23.2428 6.47856L17.6252 0.861062V0.86125ZM11.3782 2.5975C6.44128 2.93659 2.55267 7.0375 2.55267 12.0617C2.55267 17.3085 6.79326 21.5491 12.0401 21.5491C13.5752 21.5491 15.0241 21.1855 16.306 20.5404L15.2626 19.8007C14.2701 20.215 13.1816 20.4445 12.0402 20.4445C7.41586 20.4445 3.65766 16.6864 3.65766 12.0621C3.65766 7.79917 6.85139 4.27248 10.9732 3.7473L11.3781 2.59755L11.3782 2.5975ZM12.7578 2.60106L13.1588 3.75437C17.2556 4.30234 20.4226 7.81703 20.4226 12.062C20.4226 14.323 19.524 16.3765 18.0652 17.8853L18.4699 19.0425C20.3505 17.3098 21.5276 14.8256 21.5276 12.0617C21.5276 7.0563 17.6683 2.96692 12.7578 2.60106ZM12.0664 3.28028L10.5524 7.579H11.4395V9.69156C11.8422 9.58188 12.2665 9.57768 12.6713 9.67937V7.579H13.561L12.0664 3.28019V3.28028ZM15.433 5.36247L14.6269 6.75887C14.4647 6.68091 14.2989 6.61052 14.1302 6.54794L14.7932 8.45495H13.5474V10.0982C14.1428 10.5465 14.5295 11.2587 14.5295 12.0573C14.5295 12.465 14.4282 12.85 14.2503 13.189L16.1583 15.7289L17.0708 15.0416L17.3016 15.7016L18.2674 16.2593C18.4308 16.017 18.5799 15.7653 18.7139 15.5056L17.3381 14.7113C17.6723 14.0474 17.8768 13.326 17.9409 12.5856H19.5282C19.5401 12.4126 19.5466 12.2381 19.5466 12.0621C19.5466 11.944 19.5435 11.8265 19.5381 11.7096H17.9528C17.9069 10.9397 17.7133 10.2099 17.3999 9.54808L18.7804 8.75111C18.6515 8.48876 18.5074 8.23417 18.3487 7.98864L16.9669 8.78645C16.5461 8.16039 16.0094 7.62065 15.3858 7.19636L16.1898 5.8037C15.9464 5.64196 15.6938 5.49468 15.4331 5.36261L15.433 5.36247ZM8.61829 5.37714C8.35822 5.51048 8.10617 5.6589 7.86342 5.82166L8.68936 7.25242C8.08444 7.6791 7.56498 8.21553 7.15795 8.83384L5.72147 8.00439C5.56338 8.25028 5.4199 8.50525 5.29176 8.76798L6.73223 9.59955C6.43294 10.2477 6.24801 10.9597 6.20325 11.7096H4.54237C4.53682 11.827 4.53397 11.9446 4.53384 12.0621C4.53384 12.2381 4.54041 12.4126 4.55222 12.5856H6.2152C6.2778 13.307 6.47367 14.0105 6.79289 14.6605L5.3579 15.4889C5.49138 15.7489 5.63995 16.0009 5.80284 16.2436L7.23684 15.4157C7.64707 16.0077 8.16207 16.5198 8.75643 16.9267L7.93486 18.3495C8.17953 18.5094 8.43334 18.6548 8.69498 18.7851L9.51403 17.3664C10.1631 17.6806 10.8647 17.8721 11.5834 17.9313V19.5542C11.7345 19.5632 11.8868 19.5684 12.0403 19.5684C12.1809 19.5684 12.3206 19.5641 12.4593 19.5565V17.9395C12.7642 17.92 13.067 17.8768 13.3652 17.8103L13.8659 17.4331L11.6384 14.4679C10.4981 14.2592 9.62709 13.2557 9.62709 12.0572C9.62709 11.2795 9.99426 10.584 10.5635 10.1342V8.45486H9.31518L9.98062 6.56533C9.79692 6.63523 9.61685 6.71433 9.44109 6.80233L8.61825 5.37709L8.61829 5.37714ZM12.0783 10.4821C11.2032 10.4821 10.5031 11.1822 10.5031 12.0573C10.5031 12.9325 11.2032 13.6325 12.0783 13.6325C12.9535 13.6325 13.6535 12.9325 13.6535 12.0573C13.6535 11.1822 12.9535 10.4822 12.0783 10.4822V10.4821ZM13.6891 13.9006C13.4089 14.1459 13.0731 14.329 12.7033 14.4271L15.0917 17.6065L14.4083 18.1214L18.1462 20.771L16.6397 16.4631L15.9847 16.9565L13.689 13.9006H13.6891ZM21.8558 16.2598C21.19 17.8114 20.1666 19.1739 18.89 20.2441L19.3447 21.544L23.2424 17.6464L21.8558 16.2598ZM2.22511 16.2613L0.838313 17.6481L6.45581 23.2656L7.84345 21.878C5.32617 20.7983 3.30548 18.7781 2.22511 16.2613ZM17.3818 21.3028C17.0125 21.5171 16.6306 21.7089 16.2383 21.8772L17.6249 23.2638L18.6716 22.2171L17.3818 21.3028Z" fill="#D9D9D9"/>
</svg>
