<svg width="24" height="24" viewBox="0 0 24 24" fill="none" xmlns="http://www.w3.org/2000/svg">
<path d="M12 8C12.4596 8 12.9148 7.90947 13.3394 7.73358C13.764 7.55769 14.1499 7.29988 14.4749 6.97487C14.7999 6.64987 15.0577 6.26403 15.2336 5.83939C15.4095 5.41475 15.5 4.95963 15.5 4.5C15.5 4.04037 15.4095 3.58525 15.2336 3.16061C15.0577 2.73597 14.7999 2.35013 14.4749 2.02513C14.1499 1.70012 13.764 1.44231 13.3394 1.26642C12.9148 1.09053 12.4596 1 12 1C11.0717 1 10.1815 1.36875 9.52513 2.02513C8.86875 2.6815 8.5 3.57174 8.5 4.5C8.5 5.42826 8.86875 6.3185 9.52513 6.97487C10.1815 7.63125 11.0717 8 12 8Z" fill="#D9D9D9" stroke="#D9D9D9" stroke-linecap="round" stroke-linejoin="round"/>
<mask id="path-2-inside-1_562_25062" fill="white">
<path d="M16.7459 12.9995C16.4334 11.985 15.804 11.0974 14.95 10.4669C14.096 9.83632 13.0624 9.49609 12.0009 9.49609C10.9393 9.49609 9.90573 9.83632 9.05175 10.4669C8.19776 11.0974 7.56835 11.985 7.25586 12.9995"/>
</mask>
<path d="M16.7459 12.9995C16.4334 11.985 15.804 11.0974 14.95 10.4669C14.096 9.83632 13.0624 9.49609 12.0009 9.49609C10.9393 9.49609 9.90573 9.83632 9.05175 10.4669C8.19776 11.0974 7.56835 11.985 7.25586 12.9995" fill="white"/>
<path d="M12.0009 9.49609V10.4961V9.49609ZM16.7459 12.9995L17.7015 12.7051C17.3261 11.4863 16.5699 10.4199 15.5439 9.66237L14.95 10.4669L14.356 11.2713C15.038 11.7749 15.5406 12.4837 15.7902 13.2939L16.7459 12.9995ZM14.95 10.4669L15.5439 9.66237C14.518 8.90485 13.2762 8.49609 12.0009 8.49609V9.49609V10.4961C12.8486 10.4961 13.674 10.7678 14.356 11.2713L14.95 10.4669ZM12.0009 9.49609V8.49609C10.7255 8.49609 9.48375 8.90485 8.45777 9.66237L9.05175 10.4669L9.64573 11.2713C10.3277 10.7678 11.1531 10.4961 12.0009 10.4961V9.49609ZM9.05175 10.4669L8.45777 9.66237C7.43178 10.4199 6.6756 11.4863 6.30017 12.7051L7.25586 12.9995L8.21155 13.2939C8.4611 12.4837 8.96375 11.7749 9.64573 11.2713L9.05175 10.4669Z" fill="#D9D9D9" mask="url(#path-2-inside-1_562_25062)"/>
<path d="M16.7459 12.9995C16.4334 11.985 15.804 11.0974 14.95 10.4669C14.096 9.83632 13.0624 9.49609 12.0009 9.49609C10.9393 9.49609 9.90573 9.83632 9.05175 10.4669C8.19776 11.0974 7.56835 11.985 7.25586 12.9995" stroke="#D9D9D9" stroke-linecap="round" stroke-linejoin="round"/>
<path d="M4.78125 15.5H19.2188C19.2946 15.5001 19.3694 15.5175 19.4375 15.5508C19.5057 15.5841 19.5656 15.6325 19.6123 15.6924C19.659 15.7522 19.6913 15.8222 19.707 15.8965C19.7227 15.9707 19.7215 16.0475 19.7031 16.1211L18.1104 22.5H5.89062L4.29688 16.123L4.2959 16.1221L4.28125 16.0098C4.28051 15.972 4.28414 15.9337 4.29199 15.8965C4.30771 15.8222 4.34002 15.7523 4.38672 15.6924C4.43341 15.6325 4.49332 15.5841 4.56152 15.5508C4.62984 15.5174 4.70523 15.5 4.78125 15.5Z" fill="#E3E3E3" stroke="#D9D9D9"/>
<path d="M4.78125 15.5H14.5156L7.51562 22.5H5.88965L4.2959 16.1221V16.1211C4.27754 16.0475 4.2763 15.9707 4.29199 15.8965C4.30772 15.8222 4.34003 15.7523 4.38672 15.6924C4.43339 15.6326 4.49338 15.5841 4.56152 15.5508C4.59576 15.5341 4.63206 15.5212 4.66895 15.5127L4.78125 15.5Z" fill="white" stroke="#D9D9D9"/>
<path d="M1 23H23M12 12V13.5M18.5 23H5.5L3.811 16.244C3.77388 16.0965 3.77091 15.9424 3.80231 15.7936C3.8337 15.6448 3.89864 15.5051 3.99217 15.3851C4.08571 15.2651 4.20538 15.1681 4.34207 15.1014C4.47877 15.0346 4.62889 15 4.781 15H19.218C19.3699 15 19.5198 15.0347 19.6563 15.1013C19.7928 15.1679 19.9123 15.2648 20.0058 15.3845C20.0993 15.5042 20.1643 15.6436 20.1959 15.7922C20.2275 15.9408 20.2248 16.0946 20.188 16.242L18.5 23Z" stroke="#D9D9D9" stroke-linecap="round" stroke-linejoin="round"/>
<path d="M13.1671 4.4996C13.9529 4.50039 14.7306 4.34151 15.4531 4.0326C15.361 3.31101 15.0448 2.6365 14.5492 2.10404C14.0535 1.57158 13.4034 1.20799 12.6902 1.06445C11.9771 0.920917 11.2369 1.00467 10.5738 1.30392C9.91077 1.60318 9.35828 2.10285 8.99414 2.7326C9.53551 3.29213 10.184 3.73694 10.9009 4.04052C11.6179 4.3441 12.3886 4.50023 13.1671 4.4996Z" fill="white" stroke="#D9D9D9" stroke-linecap="round" stroke-linejoin="round"/>
<path d="M12 20C12.3315 20 12.6495 19.8683 12.8839 19.6339C13.1183 19.3995 13.25 19.0815 13.25 18.75C13.25 18.4185 13.1183 18.1005 12.8839 17.8661C12.6495 17.6317 12.3315 17.5 12 17.5C11.6685 17.5 11.3505 17.6317 11.1161 17.8661C10.8817 18.1005 10.75 18.4185 10.75 18.75C10.75 19.0815 10.8817 19.3995 11.1161 19.6339C11.3505 19.8683 11.6685 20 12 20Z" fill="#808080" stroke="#D9D9D9" stroke-linecap="round" stroke-linejoin="round"/>
</svg>
